<svg aria-hidden="true" style="position: absolute; width: 0; height: 0; overflow: hidden;" version="1.1" xmlns="http://www.w3.org/2000/svg" xmlns:xlink="http://www.w3.org/1999/xlink">
<defs>
<symbol id="icon-pencil" viewBox="0 0 32 32">
<title>pencil</title>
<path d="M27 0c2.761 0 5 2.239 5 5 0 1.126-0.372 2.164-1 3l-2 2-7-7 2-2c0.836-0.628 1.874-1 3-1zM2 23l-2 9 9-2 18.5-18.5-7-7-18.5 18.5zM22.362 11.362l-14 14-1.724-1.724 14-14 1.724 1.724z"></path>
</symbol>
<symbol id="icon-book" viewBox="0 0 32 32">
<title>book</title>
<path d="M28 4v26h-21c-1.657 0-3-1.343-3-3s1.343-3 3-3h19v-24h-20c-2.2 0-4 1.8-4 4v24c0 2.2 1.8 4 4 4h24v-28h-2z"></path>
<path d="M7.002 26v0c-0.001 0-0.001 0-0.002 0-0.552 0-1 0.448-1 1s0.448 1 1 1c0.001 0 0.001-0 0.002-0v0h18.997v-2h-18.997z"></path>
</symbol>
<symbol id="icon-profile" viewBox="0 0 32 32">
<title>profile</title>
<path d="M27 0h-24c-1.65 0-3 1.35-3 3v26c0 1.65 1.35 3 3 3h24c1.65 0 3-1.35 3-3v-26c0-1.65-1.35-3-3-3zM26 28h-22v-24h22v24zM8 18h14v2h-14zM8 22h14v2h-14zM10 9c0-1.657 1.343-3 3-3s3 1.343 3 3c0 1.657-1.343 3-3 3s-3-1.343-3-3zM15 12h-4c-1.65 0-3 0.9-3 2v2h10v-2c0-1.1-1.35-2-3-2z"></path>
</symbol>
<symbol id="icon-phone" viewBox="0 0 32 32">
<title>phone</title>
<path d="M22 20c-2 2-2 4-4 4s-4-2-6-4-4-4-4-6 2-2 4-4-4-8-6-8-6 6-6 6c0 4 4.109 12.109 8 16s12 8 16 8c0 0 6-4 6-6s-6-8-8-6z"></path>
</symbol>
<symbol id="icon-address-book" viewBox="0 0 32 32">
<title>address-book</title>
<path d="M6 0v32h24v-32h-24zM18 8.010c2.203 0 3.99 1.786 3.99 3.99s-1.786 3.99-3.99 3.99-3.99-1.786-3.99-3.99 1.786-3.99 3.99-3.99v0zM24 24h-12v-2c0-2.209 1.791-4 4-4v0h4c2.209 0 4 1.791 4 4v2z"></path>
<path d="M2 2h3v6h-3v-6z"></path>
<path d="M2 10h3v6h-3v-6z"></path>
<path d="M2 18h3v6h-3v-6z"></path>
<path d="M2 26h3v6h-3v-6z"></path>
</symbol>
<symbol id="icon-user" viewBox="0 0 32 32">
<title>user</title>
<path d="M18 22.082v-1.649c2.203-1.241 4-4.337 4-7.432 0-4.971 0-9-6-9s-6 4.029-6 9c0 3.096 1.797 6.191 4 7.432v1.649c-6.784 0.555-12 3.888-12 7.918h28c0-4.030-5.216-7.364-12-7.918z"></path>
</symbol>
<symbol id="icon-earth" viewBox="0 0 32 32">
<title>earth</title>
<path d="M16 0c-8.837 0-16 7.163-16 16s7.163 16 16 16 16-7.163 16-16-7.163-16-16-16zM16 30c-1.967 0-3.84-0.407-5.538-1.139l7.286-8.197c0.163-0.183 0.253-0.419 0.253-0.664v-3c0-0.552-0.448-1-1-1-3.531 0-7.256-3.671-7.293-3.707-0.188-0.188-0.442-0.293-0.707-0.293h-4c-0.552 0-1 0.448-1 1v6c0 0.379 0.214 0.725 0.553 0.894l3.447 1.724v5.871c-3.627-2.53-6-6.732-6-11.489 0-2.147 0.484-4.181 1.348-6h3.652c0.265 0 0.52-0.105 0.707-0.293l4-4c0.188-0.188 0.293-0.442 0.293-0.707v-2.419c1.268-0.377 2.61-0.581 4-0.581 2.2 0 4.281 0.508 6.134 1.412-0.13 0.109-0.256 0.224-0.376 0.345-1.133 1.133-1.757 2.64-1.757 4.243s0.624 3.109 1.757 4.243c1.139 1.139 2.663 1.758 4.239 1.758 0.099 0 0.198-0.002 0.297-0.007 0.432 1.619 1.211 5.833-0.263 11.635-0.014 0.055-0.022 0.109-0.026 0.163-2.541 2.596-6.084 4.208-10.004 4.208z"></path>
</symbol>
<symbol id="icon-mail4" viewBox="0 0 32 32">
<title>mail4</title>
<path d="M16 0c-8.837 0-16 7.163-16 16s7.163 16 16 16 16-7.163 16-16-7.163-16-16-16zM8 8h16c0.286 0 0.563 0.061 0.817 0.177l-8.817 10.286-8.817-10.287c0.254-0.116 0.531-0.177 0.817-0.177zM6 22v-12c0-0.042 0.002-0.084 0.004-0.125l5.864 6.842-5.8 5.8c-0.045-0.167-0.069-0.34-0.069-0.517zM24 24h-16c-0.177 0-0.35-0.024-0.517-0.069l5.691-5.691 2.826 3.297 2.826-3.297 5.691 5.691c-0.167 0.045-0.34 0.069-0.517 0.069zM26 22c0 0.177-0.024 0.35-0.069 0.517l-5.8-5.8 5.865-6.842c0.003 0.041 0.004 0.083 0.004 0.125v12z"></path>
</symbol>
<symbol id="icon-facebook2" viewBox="0 0 32 32">
<title>facebook2</title>
<path d="M29 0h-26c-1.65 0-3 1.35-3 3v26c0 1.65 1.35 3 3 3h13v-14h-4v-4h4v-2c0-3.306 2.694-6 6-6h4v4h-4c-1.1 0-2 0.9-2 2v2h6l-1 4h-5v14h9c1.65 0 3-1.35 3-3v-26c0-1.65-1.35-3-3-3z"></path>
</symbol>
<symbol id="icon-github" viewBox="0 0 32 32">
<title>github</title>
<path d="M16 0.395c-8.836 0-16 7.163-16 16 0 7.069 4.585 13.067 10.942 15.182 0.8 0.148 1.094-0.347 1.094-0.77 0-0.381-0.015-1.642-0.022-2.979-4.452 0.968-5.391-1.888-5.391-1.888-0.728-1.849-1.776-2.341-1.776-2.341-1.452-0.993 0.11-0.973 0.11-0.973 1.606 0.113 2.452 1.649 2.452 1.649 1.427 2.446 3.743 1.739 4.656 1.33 0.143-1.034 0.558-1.74 1.016-2.14-3.554-0.404-7.29-1.777-7.29-7.907 0-1.747 0.625-3.174 1.649-4.295-0.166-0.403-0.714-2.030 0.155-4.234 0 0 1.344-0.43 4.401 1.64 1.276-0.355 2.645-0.532 4.005-0.539 1.359 0.006 2.729 0.184 4.008 0.539 3.054-2.070 4.395-1.64 4.395-1.64 0.871 2.204 0.323 3.831 0.157 4.234 1.026 1.12 1.647 2.548 1.647 4.295 0 6.145-3.743 7.498-7.306 7.895 0.574 0.497 1.085 1.47 1.085 2.963 0 2.141-0.019 3.864-0.019 4.391 0 0.426 0.288 0.925 1.099 0.768 6.354-2.118 10.933-8.113 10.933-15.18 0-8.837-7.164-16-16-16z"></path>
</symbol>
<symbol id="icon-skype" viewBox="0 0 32 32">
<title>skype</title>
<path d="M13.3 1.169c-0.050-0.031-0.106-0.056-0.156-0.081-0.056 0.012-0.106 0.019-0.162 0.031l0.319 0.050z"></path>
<path d="M1.15 13.156c-0.012 0.056-0.019 0.113-0.025 0.162 0.031 0.050 0.050 0.1 0.081 0.15l-0.056-0.313z"></path>
<path d="M30.837 18.831c0.012-0.056 0.019-0.113 0.031-0.169-0.031-0.050-0.050-0.1-0.081-0.15l0.050 0.319z"></path>
<path d="M18.5 30.719c0.050 0.031 0.106 0.056 0.156 0.081 0.056-0.012 0.113-0.019 0.169-0.025l-0.325-0.056z"></path>
<path d="M30.869 18.663c-0.012 0.056-0.019 0.113-0.031 0.169l-0.056-0.325c0.031 0.056 0.056 0.106 0.087 0.156 0.163-0.9 0.25-1.819 0.25-2.738 0-2.037-0.4-4.019-1.188-5.881-0.762-1.8-1.85-3.419-3.238-4.806s-3.006-2.475-4.8-3.237c-1.863-0.788-3.844-1.188-5.881-1.188-0.963 0-1.925 0.088-2.863 0.269 0 0-0.006 0-0.006 0 0.050 0.025 0.106 0.050 0.156 0.081l-0.319-0.050c0.056-0.012 0.106-0.019 0.162-0.031-1.287-0.681-2.731-1.050-4.194-1.050-2.388 0-4.638 0.931-6.325 2.619s-2.619 3.937-2.619 6.325c0 1.519 0.394 3.019 1.125 4.338 0.012-0.056 0.019-0.113 0.025-0.162l0.056 0.319c-0.031-0.050-0.056-0.1-0.081-0.15-0.15 0.856-0.225 1.731-0.225 2.606 0 2.038 0.4 4.019 1.188 5.881 0.763 1.8 1.85 3.413 3.237 4.8s3.006 2.475 4.806 3.238c1.863 0.788 3.844 1.188 5.881 1.188 0.887 0 1.775-0.081 2.644-0.238-0.050-0.031-0.1-0.056-0.156-0.081l0.325 0.056c-0.056 0.012-0.113 0.019-0.169 0.025 1.337 0.756 2.856 1.163 4.4 1.163 2.387 0 4.637-0.931 6.325-2.619s2.619-3.938 2.619-6.325c-0.006-1.519-0.4-3.019-1.137-4.35zM16.069 25.181c-5.369 0-7.769-2.637-7.769-4.619 0-1.012 0.75-1.725 1.781-1.725 2.3 0 1.7 3.3 5.988 3.3 2.194 0 3.406-1.194 3.406-2.413 0-0.731-0.363-1.544-1.806-1.9l-4.775-1.194c-3.844-0.963-4.544-3.044-4.544-5 0-4.056 3.819-5.581 7.406-5.581 3.306 0 7.2 1.825 7.2 4.263 0 1.044-0.906 1.65-1.938 1.65-1.962 0-1.6-2.713-5.55-2.713-1.963 0-3.044 0.887-3.044 2.156s1.55 1.675 2.894 1.981l3.538 0.787c3.869 0.863 4.85 3.125 4.85 5.25 0 3.294-2.531 5.756-7.637 5.756z"></path>
</symbol>
</defs>
</svg>
